<?xml version="1.0" encoding="UTF-8"?>
<!DOCTYPE svg PUBLIC "-//W3C//DTD SVG 1.1//EN"
    "http://www.w3.org/Graphics/SVG/1.1/DTD/svg11.dtd">
<svg xmlns="http://www.w3.org/2000/svg">
    <!-- lang de -->
    <symbol id="lang-de" viewBox="0 0 30 18" fill="inherit">
        <path d="M15.3945 9.07031C15.3945 11.0625 15.0234 12.7188 14.2812 14.0391C13.5391 15.3594 12.4922 16.3516 11.1406 17.0156C9.79687 17.6719 8.21484 18 6.39453 18H0.851562L0.851562 0.867188L6.78125 0.867188C8.625 0.867188 10.1875 1.18359 11.4687 1.81641C12.75 2.44922 13.7227 3.375 14.3867 4.59375C15.0586 5.8125 15.3945 7.30469 15.3945 9.07031ZM10.5898 9.23438C10.5898 8.19531 10.4492 7.33594 10.168 6.65625C9.89453 5.96875 9.48047 5.45703 8.92578 5.12109C8.37109 4.77734 7.67187 4.60547 6.82812 4.60547H5.48047L5.48047 14.2031H6.51172C7.91797 14.2031 8.94922 13.7969 9.60547 12.9844C10.2617 12.1641 10.5898 10.9141 10.5898 9.23438ZM28.6484 18H18.4766L18.4766 0.867188L28.6484 0.867188L28.6484 4.58203L23.1055 4.58203V7.27734L28.2383 7.27734V10.9922H23.1055V14.2266H28.6484V18Z" fill="inherit"/>
    </symbol>

    <!-- lang de -->
    <symbol id="lang-en" viewBox="0 0 29 18" fill="inherit">
        <path d="M11.0234 18L0.851562 18L0.851562 0.867188L11.0234 0.867188V4.58203H5.48047L5.48047 7.27734H10.6133L10.6133 10.9922L5.48047 10.9922L5.48047 14.2266L11.0234 14.2266V18ZM30.3359 18H24.2656L18.0078 5.92969H17.9023C17.9414 6.29688 17.9766 6.73828 18.0078 7.25391C18.0391 7.76953 18.0664 8.29688 18.0898 8.83594C18.1133 9.36719 18.125 9.84766 18.125 10.2773V18H14.0234L14.0234 0.867188L20.0703 0.867188L26.3047 12.7734H26.375C26.3516 12.3984 26.3281 11.9648 26.3047 11.4727C26.2812 10.9727 26.2578 10.4688 26.2344 9.96094C26.2187 9.45313 26.2109 9.00391 26.2109 8.61328L26.2109 0.867188L30.3359 0.867188L30.3359 18Z" fill="inherit"/>
    </symbol>


    <!--  cart -->
    <symbol id="cart" viewBox="0 0 28 38" fill="none" xmlns="http://www.w3.org/2000/svg">
        <mask id="path-1-inside-1_9_136" fill="white">
            <path d="M0 6H28V37C28 37.5523 27.5523 38 27 38H1C0.447715 38 0 37.5523 0 37V6Z"/>
        </mask>
        <path d="M0 6H28V37C28 37.5523 27.5523 38 27 38H1C0.447715 38 0 37.5523 0 37V6Z" stroke="black" stroke-width="4" mask="url(#path-1-inside-1_9_136)"/>
        <mask id="path-2-inside-2_9_136" fill="white">
            <path d="M8 6C8 2.68629 10.6863 0 14 0C17.3137 0 20 2.68629 20 6V13H8V6Z"/>
        </mask>
        <path d="M7 6C7 2.13401 10.134 -1 14 -1C17.866 -1 21 2.13401 21 6H19C19 3.23858 16.7614 1 14 1C11.2386 1 9 3.23858 9 6H7ZM20 13H8H20ZM7 13V6C7 2.13401 10.134 -1 14 -1V1C11.2386 1 9 3.23858 9 6V13H7ZM14 -1C17.866 -1 21 2.13401 21 6V13H19V6C19 3.23858 16.7614 1 14 1V-1Z" fill="black" mask="url(#path-2-inside-2_9_136)"/>
        <line x1="8" y1="18.5" x2="20" y2="18.5" stroke="black"/>
        <line x1="10" y1="21.5" x2="18" y2="21.5" stroke="black"/>
    </symbol>


    <!--  account -->
    <symbol id="user" viewBox="0 0 30 35" fill="transparent">
        <path d="M21.8333 8.67188C21.8333 12.6897 18.7182 15.8438 15 15.8438C11.2818 15.8438 8.16666 12.6897 8.16666 8.67188C8.16666 4.6541 11.2818 1.5 15 1.5C18.7182 1.5 21.8333 4.6541 21.8333 8.67188Z" stroke="inherit" stroke-width="3"/>
        <mask id="path-2-inside-1_9_127" fill="white">
            <path d="M0 25.8125C0 23.0511 2.23858 20.8125 5 20.8125H25C27.7614 20.8125 30 23.0511 30 25.8125V37H0V25.8125Z"/>
        </mask>
        <path d="M-3 25.8125C-3 21.3942 0.581722 17.8125 5 17.8125H25C29.4183 17.8125 33 21.3942 33 25.8125H27C27 24.7079 26.1046 23.8125 25 23.8125H5C3.89543 23.8125 3 24.7079 3 25.8125H-3ZM30 37H0H30ZM-3 37V25.8125C-3 21.3942 0.581722 17.8125 5 17.8125V23.8125C3.89543 23.8125 3 24.7079 3 25.8125V37H-3ZM25 17.8125C29.4183 17.8125 33 21.3942 33 25.8125V37H27V25.8125C27 24.7079 26.1046 23.8125 25 23.8125V17.8125Z" fill="initial" mask="url(#path-2-inside-1_9_127)" stroke="2"/>
    </symbol> 
 

    <!--  heart -->
    <symbol id="heart" viewBox="0 0 45 45" fill="transparent">
        <path fill-rule="evenodd" clip-rule="evenodd" d="M22.4872 9.62965C18.7384 5.247 12.487 4.06808 7.79005 8.08128C3.09308 12.0945 2.43181 18.8043 6.12037 23.5508C9.18716 27.4971 18.4683 35.8202 21.5102 38.5141C21.8505 38.8154 22.0207 38.9661 22.2191 39.0254C22.3924 39.077 22.5819 39.077 22.7552 39.0254C22.9537 38.9661 23.1238 38.8154 23.4641 38.5141C26.506 35.8202 35.7872 27.4971 38.8539 23.5508C42.5425 18.8043 41.962 12.0523 37.1843 8.08128C32.4066 4.1103 26.2359 5.247 22.4872 9.62965Z" stroke="inherit" stroke-width="3" stroke-linecap="round" stroke-linejoin="round"/>
    </symbol>

    <!-- link -->
    <symbol id="link" viewBox="0 0 29 29" fill="transparent" xmlns="http://www.w3.org/2000/svg">
        <g clip-path="url(#clip0_83_2670)">
            <line x1="0.93934" y1="27.9393" x2="25.9393" y2="2.93934" stroke="inherit" stroke-width="3"/>
            <line x1="7" y1="1.5" x2="27" y2="1.5" stroke="inherit" stroke-width="3"/>
            <line x1="27.5" y1="22" x2="27.5" y2="-1.70743e-08" stroke="inherit" stroke-width="3"/>
        </g>
    </symbol>


</svg>