<?xml version="1.0" encoding="UTF-8"?>
<!DOCTYPE svg PUBLIC "-//W3C//DTD SVG 1.1//EN"
    "http://www.w3.org/Graphics/SVG/1.1/DTD/svg11.dtd">
<svg xmlns="http://www.w3.org/2000/svg">
    <!--  logo -->
    <symbol id="logo"viewBox="0 0 89 23" fill="none">
        <path d="M6.75 22L0 4.29688H6.375L9.375 14.7656C9.40625 14.8594 9.45833 15.099 9.53125 15.4844C9.61458 15.8698 9.65625 16.2292 9.65625 16.5625H9.76562C9.76562 16.2083 9.80208 15.8698 9.875 15.5469C9.94792 15.224 10.0052 14.974 10.0469 14.7969L13.1875 4.29688H19.5469L12.7969 22H6.75ZM29.6406 3.98438C31.3594 3.98438 32.8438 4.28646 34.0938 4.89062C35.3438 5.48438 36.3073 6.38021 36.9844 7.57812C37.6615 8.77604 38 10.276 38 12.0781V14.7969H27.0781C27.1302 15.724 27.474 16.4844 28.1094 17.0781C28.7552 17.6719 29.7031 17.9688 30.9531 17.9688C32.0573 17.9688 33.0677 17.8594 33.9844 17.6406C34.9115 17.4219 35.8646 17.0833 36.8438 16.625V21.0156C35.9896 21.4635 35.0573 21.7917 34.0469 22C33.0365 22.2083 31.7604 22.3125 30.2188 22.3125C28.4375 22.3125 26.8438 21.9948 25.4375 21.3594C24.0312 20.724 22.9219 19.7396 22.1094 18.4062C21.3073 17.0729 20.9062 15.3594 20.9062 13.2656C20.9062 11.1406 21.2708 9.39583 22 8.03125C22.7292 6.65625 23.75 5.64062 25.0625 4.98438C26.375 4.31771 27.901 3.98438 29.6406 3.98438ZM29.8594 8.14062C29.1406 8.14062 28.5365 8.36979 28.0469 8.82812C27.5677 9.27604 27.2865 9.98438 27.2031 10.9531H32.4531C32.4427 10.4323 32.3385 9.95833 32.1406 9.53125C31.9427 9.10417 31.651 8.76562 31.2656 8.51562C30.8906 8.26562 30.4219 8.14062 29.8594 8.14062ZM54.6094 16.5625C54.6094 17.6875 54.3594 18.6823 53.8594 19.5469C53.3594 20.4115 52.5573 21.0885 51.4531 21.5781C50.3594 22.0677 48.9167 22.3125 47.125 22.3125C45.8646 22.3125 44.7344 22.2448 43.7344 22.1094C42.7448 21.974 41.7396 21.7135 40.7188 21.3281V16.4375C41.8333 16.9479 42.9688 17.3177 44.125 17.5469C45.2812 17.7656 46.1927 17.875 46.8594 17.875C47.5469 17.875 48.0469 17.8021 48.3594 17.6562C48.6823 17.5 48.8438 17.2708 48.8438 16.9688C48.8438 16.7083 48.7344 16.4896 48.5156 16.3125C48.3073 16.125 47.9271 15.9115 47.375 15.6719C46.8333 15.4323 46.0677 15.1094 45.0781 14.7031C44.099 14.2969 43.2812 13.8542 42.625 13.375C41.9792 12.8958 41.4948 12.3229 41.1719 11.6562C40.849 10.9896 40.6875 10.1719 40.6875 9.20312C40.6875 7.47396 41.3542 6.17188 42.6875 5.29688C44.0208 4.42188 45.7865 3.98438 47.9844 3.98438C49.151 3.98438 50.25 4.11458 51.2812 4.375C52.3125 4.625 53.3802 4.99479 54.4844 5.48438L52.8125 9.42188C51.9375 9.02604 51.0521 8.70833 50.1562 8.46875C49.2604 8.22917 48.5469 8.10938 48.0156 8.10938C47.5365 8.10938 47.1667 8.17188 46.9062 8.29688C46.6458 8.42188 46.5156 8.60417 46.5156 8.84375C46.5156 9.0625 46.6042 9.25521 46.7812 9.42188C46.9688 9.58854 47.3177 9.78125 47.8281 10C48.3385 10.2188 49.0833 10.526 50.0625 10.9219C51.0938 11.3385 51.9427 11.7865 52.6094 12.2656C53.2865 12.7344 53.7865 13.3073 54.1094 13.9844C54.4427 14.6615 54.6094 15.5208 54.6094 16.5625ZM66.6875 17.4844C67.2396 17.4844 67.7448 17.4271 68.2031 17.3125C68.6615 17.1979 69.1406 17.0521 69.6406 16.875V21.3281C68.974 21.6198 68.2656 21.8542 67.5156 22.0312C66.776 22.2188 65.8281 22.3125 64.6719 22.3125C63.526 22.3125 62.5156 22.1354 61.6406 21.7812C60.7656 21.4167 60.0833 20.7917 59.5938 19.9062C59.1146 19.0104 58.875 17.7656 58.875 16.1719V8.875H56.7344V6.39062L59.4531 4.46875L61.0312 0.75H65.0312V4.29688H69.375V8.875H65.0312V15.7656C65.0312 16.3385 65.1771 16.7708 65.4688 17.0625C65.7604 17.3438 66.1667 17.4844 66.6875 17.4844ZM81.375 3.98438C83.6146 3.98438 85.3646 4.54167 86.625 5.65625C87.8854 6.76042 88.5156 8.33854 88.5156 10.3906V22H84.2812L83.1094 19.6562H82.9844C82.4844 20.2812 81.9688 20.7917 81.4375 21.1875C80.9167 21.5729 80.3177 21.8542 79.6406 22.0312C78.9635 22.2188 78.1354 22.3125 77.1562 22.3125C76.1354 22.3125 75.2188 22.1042 74.4062 21.6875C73.5938 21.2708 72.9531 20.6406 72.4844 19.7969C72.0156 18.9531 71.7812 17.8854 71.7812 16.5938C71.7812 14.6979 72.4375 13.2917 73.75 12.375C75.0625 11.4583 76.9635 10.9427 79.4531 10.8281L82.4062 10.7344V10.4844C82.4062 9.69271 82.2083 9.13021 81.8125 8.79688C81.4271 8.46354 80.9062 8.29688 80.25 8.29688C79.5521 8.29688 78.7708 8.42188 77.9062 8.67188C77.0521 8.91146 76.1927 9.22396 75.3281 9.60938L73.5625 5.57812C74.5833 5.05729 75.7396 4.66146 77.0312 4.39062C78.3229 4.11979 79.7708 3.98438 81.375 3.98438ZM82.4375 14.0938L81.0312 14.1562C79.9062 14.1979 79.1146 14.3958 78.6562 14.75C78.2083 15.0938 77.9844 15.5885 77.9844 16.2344C77.9844 16.8385 78.1458 17.2865 78.4688 17.5781C78.7917 17.8594 79.2188 18 79.75 18C80.4896 18 81.1198 17.7656 81.6406 17.2969C82.1719 16.8281 82.4375 16.2188 82.4375 15.4688V14.0938Z" fill="inherit"/>
    </symbol>

    <symbol id="logo-bg" viewBox="0 0 443 232" fill="none">
        <path d="M128.93 47.25L69.5 185.732L10.0699 47.25L128.93 47.25Z" stroke="inherit"/>
        <rect x="107.5" y="54.5" width="96" height="71" stroke="inherit"/>
        <rect x="107.5" y="115.5" width="96" height="71" stroke="inherit"/>
        <circle cx="232.5" cy="141.5" r="45" stroke="inherit"/>
        <circle cx="232.5" cy="90.5" r="45" stroke="inherit"/>
        <rect x="257.5" y="54.5" width="93" height="35" stroke="inherit"/>
        <rect x="276.5" y="78.5" width="55" height="108" stroke="inherit"/>
        <path d="M314.07 184.75L373.5 46.2678L432.93 184.75L314.07 184.75Z" stroke="inherit"/>
    </symbol>

</svg>