<?xml version="1.0" encoding="UTF-8"?>
<!DOCTYPE svg PUBLIC "-//W3C//DTD SVG 1.1//EN"
    "http://www.w3.org/Graphics/SVG/1.1/DTD/svg11.dtd">
<svg xmlns="http://www.w3.org/2000/svg">
    <!-- lang de -->
    <symbol id="lang-de" viewBox="0 0 30 18" fill="#141414">
        <path d="M15.3945 9.07031C15.3945 11.0625 15.0234 12.7188 14.2812 14.0391C13.5391 15.3594 12.4922 16.3516 11.1406 17.0156C9.79687 17.6719 8.21484 18 6.39453 18H0.851562L0.851562 0.867188L6.78125 0.867188C8.625 0.867188 10.1875 1.18359 11.4687 1.81641C12.75 2.44922 13.7227 3.375 14.3867 4.59375C15.0586 5.8125 15.3945 7.30469 15.3945 9.07031ZM10.5898 9.23438C10.5898 8.19531 10.4492 7.33594 10.168 6.65625C9.89453 5.96875 9.48047 5.45703 8.92578 5.12109C8.37109 4.77734 7.67187 4.60547 6.82812 4.60547H5.48047L5.48047 14.2031H6.51172C7.91797 14.2031 8.94922 13.7969 9.60547 12.9844C10.2617 12.1641 10.5898 10.9141 10.5898 9.23438ZM28.6484 18H18.4766L18.4766 0.867188L28.6484 0.867188L28.6484 4.58203L23.1055 4.58203V7.27734L28.2383 7.27734V10.9922H23.1055V14.2266H28.6484V18Z" fill="inherit"/>
    </symbol>

    <!-- lang de -->
    <symbol id="lang-en" viewBox="0 0 29 18" fill="#141414">
        <path d="M11.0234 18L0.851562 18L0.851562 0.867188L11.0234 0.867188V4.58203H5.48047L5.48047 7.27734H10.6133L10.6133 10.9922L5.48047 10.9922L5.48047 14.2266L11.0234 14.2266V18ZM30.3359 18H24.2656L18.0078 5.92969H17.9023C17.9414 6.29688 17.9766 6.73828 18.0078 7.25391C18.0391 7.76953 18.0664 8.29688 18.0898 8.83594C18.1133 9.36719 18.125 9.84766 18.125 10.2773V18H14.0234L14.0234 0.867188L20.0703 0.867188L26.3047 12.7734H26.375C26.3516 12.3984 26.3281 11.9648 26.3047 11.4727C26.2812 10.9727 26.2578 10.4688 26.2344 9.96094C26.2187 9.45313 26.2109 9.00391 26.2109 8.61328L26.2109 0.867188L30.3359 0.867188L30.3359 18Z" fill="inherit"/>
    </symbol>


    <!--  cart -->
    <symbol id="cart" viewBox="0 0 28 38" fill="none" xmlns="http://www.w3.org/2000/svg">
        <mask id="path-1-inside-1_9_136" fill="white">
            <path d="M0 6H28V37C28 37.5523 27.5523 38 27 38H1C0.447715 38 0 37.5523 0 37V6Z"/>
        </mask>
        <path d="M0 6H28V37C28 37.5523 27.5523 38 27 38H1C0.447715 38 0 37.5523 0 37V6Z" stroke="black" stroke-width="4" mask="url(#path-1-inside-1_9_136)"/>
        <mask id="path-2-inside-2_9_136" fill="white">
            <path d="M8 6C8 2.68629 10.6863 0 14 0C17.3137 0 20 2.68629 20 6V13H8V6Z"/>
        </mask>
        <path d="M7 6C7 2.13401 10.134 -1 14 -1C17.866 -1 21 2.13401 21 6H19C19 3.23858 16.7614 1 14 1C11.2386 1 9 3.23858 9 6H7ZM20 13H8H20ZM7 13V6C7 2.13401 10.134 -1 14 -1V1C11.2386 1 9 3.23858 9 6V13H7ZM14 -1C17.866 -1 21 2.13401 21 6V13H19V6C19 3.23858 16.7614 1 14 1V-1Z" fill="black" mask="url(#path-2-inside-2_9_136)"/>
        <line x1="8" y1="18.5" x2="20" y2="18.5" stroke="black"/>
        <line x1="10" y1="21.5" x2="18" y2="21.5" stroke="black"/>
    </symbol>


    <!--  account -->
    <symbol id="user" viewBox="0 0 30 35" fill="transparent">
        <path d="M21.8333 8.67188C21.8333 12.6897 18.7182 15.8438 15 15.8438C11.2818 15.8438 8.16666 12.6897 8.16666 8.67188C8.16666 4.6541 11.2818 1.5 15 1.5C18.7182 1.5 21.8333 4.6541 21.8333 8.67188Z" stroke="inherit" stroke-width="3"/>
        <mask id="path-2-inside-1_9_127" fill="white">
            <path d="M0 25.8125C0 23.0511 2.23858 20.8125 5 20.8125H25C27.7614 20.8125 30 23.0511 30 25.8125V37H0V25.8125Z"/>
        </mask>
        <path d="M-3 25.8125C-3 21.3942 0.581722 17.8125 5 17.8125H25C29.4183 17.8125 33 21.3942 33 25.8125H27C27 24.7079 26.1046 23.8125 25 23.8125H5C3.89543 23.8125 3 24.7079 3 25.8125H-3ZM30 37H0H30ZM-3 37V25.8125C-3 21.3942 0.581722 17.8125 5 17.8125V23.8125C3.89543 23.8125 3 24.7079 3 25.8125V37H-3ZM25 17.8125C29.4183 17.8125 33 21.3942 33 25.8125V37H27V25.8125C27 24.7079 26.1046 23.8125 25 23.8125V17.8125Z" fill="initial" mask="url(#path-2-inside-1_9_127)" stroke="2"/>
    </symbol> 
 

    <!--  heart -->
    <symbol id="heart" viewBox="0 0 45 45" fill="inherit">
        <path fill-rule="evenodd" clip-rule="evenodd" d="M22.4872 9.62965C18.7384 5.247 12.487 4.06808 7.79005 8.08128C3.09308 12.0945 2.43181 18.8043 6.12037 23.5508C9.18716 27.4971 18.4683 35.8202 21.5102 38.5141C21.8505 38.8154 22.0207 38.9661 22.2191 39.0254C22.3924 39.077 22.5819 39.077 22.7552 39.0254C22.9537 38.9661 23.1238 38.8154 23.4641 38.5141C26.506 35.8202 35.7872 27.4971 38.8539 23.5508C42.5425 18.8043 41.962 12.0523 37.1843 8.08128C32.4066 4.1103 26.2359 5.247 22.4872 9.62965Z" stroke="inherit" stroke-width="3" stroke-linecap="round" stroke-linejoin="round"/>
    </symbol>

    <!-- link -->
    <symbol id="link" viewBox="0 0 29 29" fill="transparent">
        <g clip-path="url(#clip0_83_2670)">
            <line x1="0.93934" y1="27.9393" x2="25.9393" y2="2.93934" stroke="inherit" stroke-width="3"/>
            <line x1="7" y1="1.5" x2="27" y2="1.5" stroke="inherit" stroke-width="3"/>
            <line x1="27.5" y1="22" x2="27.5" y2="-1.70743e-08" stroke="inherit" stroke-width="3"/>
        </g>
    </symbol>

    <symbol id="menu" viewBox="0 0 35 14">
        <path fill-rule="evenodd" clip-rule="evenodd" d="M0 3H35V0H0V3ZM12 14L35 14V11L12 11V14Z" fill="inherit"/>
    </symbol>

    <symbol id="arrow-right" viewBox="0 0 40 32">
        <line x1="0.000361937" y1="16.344" x2="35.3557" y2="16.3525" stroke="inherit" stroke-width="3"/>
        <line x1="22.9848" y1="1.9396" x2="37.1235" y2="16.0851" stroke="inherit" stroke-width="3"/>
        <line x1="22.9778" y1="30.931" x2="38.5379" y2="15.3784" stroke="inherit" stroke-width="3"/>
    </symbol>

    <symbol id="arrow-left" viewBox="0 0 40 32">
        <path d="M39.5978 15.673L4.24253 15.6276" stroke="inherit" stroke-width="3"/>
        <line x1="16.5984" y1="30.0534" x2="2.47447" y2="15.8931" stroke="inherit" stroke-width="3"/>
        <line x1="16.6356" y1="1.06202" x2="1.0593" y2="16.5984" stroke="inherit" stroke-width="3"/>
    </symbol>

    <symbol id="sort" viewBox="0 0 39 40">
        <line x1="11.191" y1="1.97958" x2="10.9428" y2="38.0103" stroke="inherit" stroke-width="3"/>
        <line x1="27.6522" y1="1.05181" x2="27.4041" y2="37.0826" stroke="inherit" stroke-width="3"/>
        <line x1="11.8114" y1="1.98476" x2="1.2484" y2="12.4033" stroke="inherit" stroke-width="3"/>
        <line x1="10.7589" y1="1.91592" x2="21.1775" y2="12.4789" stroke="inherit" stroke-width="3"/>
        <line x1="27.8901" y1="38.5276" x2="18.4183" y2="28.9244" stroke="inherit" stroke-width="3"/>
        <line x1="37.6163" y1="28.0679" x2="27.0533" y2="38.4865" stroke="inherit" stroke-width="3"/>
    </symbol>

    <symbol id="filter" viewBox="0 0 35 35">
        <path d="M8.75 17.5H26.25M4.375 8.75H30.625M13.125 26.25H21.875" stroke="inherit" stroke-width="3" stroke-linecap="square" stroke-linejoin="round"/>
    </symbol>

    <symbol id="check" viewBox="0 0 36 36" fill="none">
        <path d="M30 9L13.5 25.5L6 18" stroke="inherit" stroke-width="3" stroke-linecap="round" stroke-linejoin="round"/>
    </symbol>

    <symbol id="chevron-right" viewBox="0 0 19 32">
        <line x1="1.98481" y1="1.9396" x2="16.1235" y2="16.0851" stroke="inherit" stroke-width="3"/>
        <line x1="1.9778" y1="30.931" x2="17.5379" y2="15.3784" stroke="inherit" stroke-width="3"/>
    </symbol>

    <symbol id="chevron-left" viewBox="0 0 18 32">
        <line x1="16.5984" y1="30.0534" x2="2.47446" y2="15.8931" stroke="inherit" stroke-width="3"/>
        <line x1="16.6356" y1="1.06202" x2="1.05929" y2="16.5984" stroke="inherit" stroke-width="3"/>
    </symbol>

    <symbol id="plus" viewBox="0 0 37 37">
        <line y1="18.5" x2="37" y2="18.5" stroke="inherit" stroke-width="3"/>
        <line x1="18.5" x2="18.5" y2="37" stroke="inherit" stroke-width="3"/>
    </symbol>

    <symbol id="minus" viewBox="0 0 37 37">
        <line y1="18.5" x2="37" y2="18.5" stroke="inherit" stroke-width="3"/>
    </symbol>

    <symbol id="close" viewBox="0 0 36 36">
        <line x1="2.06066" y1="0.939343" x2="35.0607" y2="33.9393" stroke="inherit" stroke-width="3"/>
        <line x1="0.93934" y1="33.9393" x2="33.9393" y2="0.93934" stroke="inherit" stroke-width="3"/>
    </symbol>

    <symbol id="share" viewBox="0 0 35 35" fill="none">
        <circle cx="28.5" cy="6.5" r="5.5" stroke="inherit" stroke-width="2"/>
        <circle cx="7.5" cy="19.5" r="6.5" stroke="inherit" stroke-width="2"/>
        <circle cx="25.5" cy="29.5" r="4.5" stroke="inherit" stroke-width="2"/>
        <line x1="13.7764" y1="15.5528" x2="23.7764" y2="10.5528" stroke="inherit"/>
        <line x1="13.265" y1="22.576" x2="21.265" y2="27.576" stroke="inherit"/>
    </symbol>

    <symbol id="search" viewBox="0 0 40 39" fill="none">
        <circle cx="14.1818" cy="14.1818" r="13.1818" stroke="inherit" stroke-width="2"/>
        <line x1="37.8585" y1="37.4142" x2="23.6767" y2="23.2324" stroke="inherit" stroke-width="4"/>
    </symbol>

    <symbol id="home" viewBox="0 0 45 39" fill="none">
        <path d="M44 18.8261L22.8079 2.62318L1 18.8261" stroke="inherit" stroke-width="3"/>
        <path d="M32.1595 2V9.47826" stroke="inherit" stroke-width="3"/>
        <path d="M37.1449 37.5218V18.2029L22.8116 7.60872L8.47827 18.2029V37.5218H37.7681" stroke="inherit"/>
    </symbol>

    <symbol id="chat" viewBox="0 0 42 29" fill="none">
        <mask id="path-1-inside-1_9_131" fill="white">
        <path fill-rule="evenodd" clip-rule="evenodd" d="M20.6856 25.9762C32.11 25.9762 41.3712 20.1612 41.3712 12.9881C41.3712 5.81497 32.11 0 20.6856 0C9.26127 0 0 5.81497 0 12.9881C0 16.4192 2.11889 19.5395 5.57988 21.8613L3.40074 29L10.8151 24.405C13.7486 25.407 17.1112 25.9762 20.6856 25.9762Z"/>
        </mask>
        <path d="M5.57988 21.8613L7.49274 22.4452L7.92575 21.0267L6.6941 20.2005L5.57988 21.8613ZM3.40074 29L1.48787 28.4161L-0.0641105 33.5003L4.4543 30.7L3.40074 29ZM10.8151 24.405L11.4615 22.5124L10.566 22.2065L9.76154 22.705L10.8151 24.405ZM39.3712 12.9881C39.3712 15.6407 37.6538 18.3405 34.2491 20.4783C30.8714 22.5991 26.0812 23.9762 20.6856 23.9762V27.9762C26.7144 27.9762 32.267 26.4458 36.3761 23.8659C40.4581 21.3029 43.3712 17.5086 43.3712 12.9881H39.3712ZM20.6856 2C26.0812 2 30.8714 3.37713 34.2491 5.49793C37.6538 7.63568 39.3712 10.3355 39.3712 12.9881H43.3712C43.3712 8.46759 40.4581 4.67334 36.3761 2.11033C32.267 -0.469647 26.7144 -2 20.6856 -2V2ZM2 12.9881C2 10.3355 3.71747 7.63568 7.12218 5.49793C10.4999 3.37713 15.29 2 20.6856 2V-2C14.6569 -2 9.10419 -0.469647 4.99517 2.11033C0.913167 4.67334 -2 8.46759 -2 12.9881H2ZM6.6941 20.2005C3.56903 18.104 2 15.5273 2 12.9881H-2C-2 17.311 0.668744 20.975 4.46565 23.5222L6.6941 20.2005ZM5.3136 29.5839L7.49274 22.4452L3.66702 21.2774L1.48787 28.4161L5.3136 29.5839ZM9.76154 22.705L2.34717 27.3L4.4543 30.7L11.8687 26.105L9.76154 22.705ZM20.6856 23.9762C17.3196 23.9762 14.1763 23.4396 11.4615 22.5124L10.1687 26.2977C13.3209 27.3743 16.9028 27.9762 20.6856 27.9762V23.9762Z" fill="black" mask="url(#path-1-inside-1_9_131)"/>
        <circle cx="14.2659" cy="12.8394" r="2.35319" stroke="inherit"/>
        <circle cx="21.3989" cy="12.8394" r="2.35319" stroke="inherit"/>
        <circle cx="28.5319" cy="12.8394" r="2.35319" stroke="inherit"/>
    </symbol>

    <symbol id="edit" viewBox="0 0 34 38" fill="none">
        <rect x="24.4395" y="5" width="6.8633" height="20" transform="rotate(37.7137 24.4395 5)" fill="inherit"/>
        <path d="M27.5521 1.88801C28.0589 1.23266 29.001 1.11221 29.6563 1.61897L31.9214 3.3705C32.5768 3.87726 32.6972 4.81934 32.1905 5.47469L30.5449 7.60277L25.9066 4.01609L27.5521 1.88801Z" fill="inherit" stroke="inherit"/>
        <path d="M9.96596 29.0653L11.5619 21.866L16.699 26.0582L9.96596 29.0653Z" fill="inherit"/>
        <path d="M19.9818 4H1V37H30V16.1846" stroke="inherit" stroke-width="2"/>
    </symbol>

    <symbol id="settings" viewBox="0 0 32 32" fill="none">
        <circle cx="16" cy="16" r="9.5" stroke="inherit" stroke-width="7"/>
        <rect x="14" y="1" width="4" height="2" fill="#D9D9D9" stroke="inherit" stroke-width="2"/>
        <rect x="14" y="29" width="4" height="2" fill="#D9D9D9" stroke="inherit" stroke-width="2"/>
        <rect x="29" y="18" width="4" height="2" transform="rotate(-90 29 18)" fill="#D9D9D9" stroke="inherit" stroke-width="2"/>
        <rect x="1" y="18" width="4" height="2" transform="rotate(-90 1 18)" fill="#D9D9D9" stroke="inherit" stroke-width="2"/>
        <rect x="4.41421" y="7.24261" width="4" height="2" transform="rotate(-45 4.41421 7.24261)" fill="#D9D9D9" stroke="inherit" stroke-width="2"/>
        <rect x="23.4142" y="26.2426" width="4" height="2" transform="rotate(-45 23.4142 26.2426)" fill="#D9D9D9" stroke="inherit" stroke-width="2"/>
        <rect x="26.2426" y="7.65683" width="4" height="2" transform="rotate(-135 26.2426 7.65683)" fill="#D9D9D9" stroke="inherit" stroke-width="2"/>
        <rect x="7.24265" y="27.6568" width="4" height="2" transform="rotate(-135 7.24265 27.6568)" fill="#D9D9D9" stroke="inherit" stroke-width="2"/>
    </symbol>

    <symbol id="like" viewBox="0 0 38 33" fill="none">
        <path d="M36.5493 11.744L33.0768 32H10.6L10.6 14.6928L36.5493 11.744Z" stroke="inherit" stroke-width="2"/>
        <path d="M20.5171 1.38428C18.375 13.5419 13.7093 14.4611 11.7016 15.0037C9.69389 15.5463 25.0097 13.0175 24.2958 13.0175C24.3124 10.5739 24.3185 9.30425 24.2958 6.39703C24.2594 1.64176 24.2154 0.221799 20.5171 1.38428Z" stroke="inherit" stroke-width="2"/>
        <rect x="1" y="14.8" width="5.68" height="17.2" stroke="inherit" stroke-width="2"/>
    </symbol>

    <symbol id="map" viewBox="0 -2 28 37" fill="none">
        <path d="M27.5 31C27.5 31.2985 27.2842 31.6939 26.6199 32.1427C25.9731 32.5796 25.0043 32.9928 23.7621 33.3477C21.2847 34.0555 17.8331 34.5 14 34.5C10.1669 34.5 6.7153 34.0555 4.23787 33.3477C2.99575 32.9928 2.0269 32.5796 1.38007 32.1427C0.715785 31.6939 0.5 31.2985 0.5 31C0.5 30.7015 0.715785 30.3061 1.38007 29.8573C2.0269 29.4204 2.99575 29.0072 4.23787 28.6523C6.7153 27.9445 10.1669 27.5 14 27.5C17.8331 27.5 21.2847 27.9445 23.7621 28.6523C25.0043 29.0072 25.9731 29.4204 26.6199 29.8573C27.2842 30.3061 27.5 30.7015 27.5 31Z" stroke="inherit"/>
        <path fill-rule="evenodd" clip-rule="evenodd" d="M24 9.38158C24 11.3546 23.3508 13.1854 22.2418 14.6962L14 31L5.75808 14.696C4.64918 13.1853 4 11.3546 4 9.38158C4 4.20028 8.47715 0 14 0C19.5228 0 24 4.20028 24 9.38158ZM14 12.7179C16.3012 12.7179 18.1666 10.9386 18.1666 8.74359C18.1666 6.54861 16.3012 4.76923 14 4.76923C11.6988 4.76923 9.83332 6.54861 9.83332 8.74359C9.83332 10.9386 11.6988 12.7179 14 12.7179Z" fill="black"/>
    </symbol>

    <symbol id="phone" viewBox="0 0 18 34" fill="none">
        <path fill-rule="evenodd" clip-rule="evenodd" d="M1 0C0.447715 0 0 0.447716 0 1V33C0 33.5523 0.447716 34 1 34H17C17.5523 34 18 33.5523 18 33V1C18 0.447715 17.5523 0 17 0H1ZM17.1 3H0.9V28H17.1V3ZM10.8 31C10.8 32.1046 9.99411 33 9 33C8.00589 33 7.2 32.1046 7.2 31C7.2 29.8954 8.00589 29 9 29C9.99411 29 10.8 29.8954 10.8 31ZM6.3 2H11.7V1H6.3V2Z" fill="black"/>
    </symbol>

    <symbol id="heart" width="45" height="45" viewBox="0 0 45 45" fill="inherit" xmlns="http://www.w3.org/2000/svg">
        <path fill-rule="evenodd" clip-rule="evenodd" d="M22.4872 9.62965C18.7384 5.247 12.487 4.06808 7.79005 8.08128C3.09308 12.0945 2.43181 18.8043 6.12037 23.5508C9.18716 27.4971 18.4683 35.8202 21.5102 38.5141C21.8505 38.8154 22.0207 38.9661 22.2191 39.0254C22.3924 39.077 22.5819 39.077 22.7552 39.0254C22.9537 38.9661 23.1238 38.8154 23.4641 38.5141C26.506 35.8202 35.7872 27.4971 38.8539 23.5508C42.5425 18.8043 41.962 12.0523 37.1843 8.08128C32.4066 4.1103 26.2359 5.247 22.4872 9.62965Z" stroke="inherit" stroke-width="3" stroke-linecap="round" stroke-linejoin="round"/>
    </symbol>

    <symbol id="download" viewBox="0 0 33 36" fill="none">
        <path d="M27.5 18.75V10.2C27.5 7.67976 27.5 6.41965 27.0504 5.45704C26.6549 4.61031 26.0239 3.9219 25.2477 3.49047C24.3653 3 23.2102 3 20.9 3H12.1C9.78978 3 8.63468 3 7.75229 3.49047C6.97612 3.9219 6.34508 4.61031 5.9496 5.45704C5.5 6.41965 5.5 7.67976 5.5 10.2V25.8C5.5 28.3202 5.5 29.5804 5.9496 30.543C6.34508 31.3897 6.97612 32.0781 7.75229 32.5095C8.63468 33 9.78972 33 12.0998 33H17.1875M19.25 16.5H11M13.75 22.5H11M22 10.5H11M20.625 28.5L24.75 33M24.75 33L28.875 28.5M24.75 33V24" stroke="inherit" stroke-width="3" stroke-linecap="round" stroke-linejoin="round"/>
    </symbol>

    <symbol id="password" viewBox="0 0 31 36" fill="none">
        <mask id="path-1-inside-1_38_320" fill="white">
        <rect y="13" width="31" height="23" rx="1"/>
        </mask>
        <rect y="13" width="31" height="23" rx="1" stroke="inherit" stroke-width="6" mask="url(#path-1-inside-1_38_320)"/>
        <mask id="path-2-inside-2_38_320" fill="white">
        <path d="M4 5C4 2.23858 6.23858 0 9 0H22C24.7614 0 27 2.23858 27 5V13H4V5Z"/>
        </mask>
        <path d="M1 5C1 0.581722 4.58172 -3 9 -3H22C26.4183 -3 30 0.581722 30 5H24C24 3.89543 23.1046 3 22 3H9C7.89543 3 7 3.89543 7 5H1ZM27 13H4H27ZM1 13V5C1 0.581722 4.58172 -3 9 -3V3C7.89543 3 7 3.89543 7 5V13H1ZM22 -3C26.4183 -3 30 0.581722 30 5V13H24V5C24 3.89543 23.1046 3 22 3V-3Z" fill="black" mask="url(#path-2-inside-2_38_320)"/>
        <path d="M8.80844 22.9219L8.66 24.2969L10.0506 23.9023L10.1952 25.0547L8.96859 25.1367L9.77719 26.2227L8.76156 26.7617L8.20297 25.6562L7.7225 26.7539L6.66 26.2227L7.46469 25.1367L6.24203 25.0391L6.41781 23.9023L7.77719 24.2969L7.62484 22.9219H8.80844ZM13.6653 22.9219L13.5169 24.2969L14.9075 23.9023L15.052 25.0547L13.8255 25.1367L14.6341 26.2227L13.6184 26.7617L13.0598 25.6562L12.5794 26.7539L11.5169 26.2227L12.3216 25.1367L11.0989 25.0391L11.2747 23.9023L12.6341 24.2969L12.4817 22.9219H13.6653ZM18.5222 22.9219L18.3737 24.2969L19.7644 23.9023L19.9089 25.0547L18.6823 25.1367L19.4909 26.2227L18.4753 26.7617L17.9167 25.6562L17.4362 26.7539L16.3737 26.2227L17.1784 25.1367L15.9558 25.0391L16.1316 23.9023L17.4909 24.2969L17.3386 22.9219H18.5222ZM23.3791 22.9219L23.2306 24.2969L24.6213 23.9023L24.7658 25.0547L23.5392 25.1367L24.3478 26.2227L23.3322 26.7617L22.7736 25.6562L22.2931 26.7539L21.2306 26.2227L22.0353 25.1367L20.8127 25.0391L20.9884 23.9023L22.3478 24.2969L22.1955 22.9219H23.3791Z" fill="black"/>
    </symbol>

    <symbol id="history" viewBox="0 0 33 36" fill="none">
        <path d="M27.5 18.75V10.2C27.5 7.67976 27.5 6.41965 27.0504 5.45704C26.6549 4.61031 26.0239 3.9219 25.2477 3.49047C24.3653 3 23.2102 3 20.9 3H12.1C9.78978 3 8.63468 3 7.75229 3.49047C6.97612 3.9219 6.34508 4.61031 5.9496 5.45704C5.5 6.41965 5.5 7.67976 5.5 10.2V25.8C5.5 28.3202 5.5 29.5804 5.9496 30.543C6.34508 31.3897 6.97612 32.0781 7.75229 32.5095C8.63468 33 9.78972 33 12.0998 33H17.1875M19.25 16.5H11M13.75 22.5H11M22 10.5H11" stroke="inherit" stroke-width="3" stroke-linecap="round" stroke-linejoin="round"/>
        <circle cx="26.5" cy="28.5" r="6" stroke="inherit"/>
        <line x1="26.5" y1="24.5" x2="26.5" y2="28.5" stroke="inherit" stroke-linecap="round"/>
        <path d="M29 30L27 29" stroke="inherit" stroke-linecap="round"/>
    </symbol>

    <symbol id="order" viewBox="0 0 33 36" fill="none">
        <path d="M27.5 18.75V10.2C27.5 7.67976 27.5 6.41965 27.0504 5.45704C26.6549 4.61031 26.0239 3.9219 25.2477 3.49047C24.3653 3 23.2102 3 20.9 3H12.1C9.78978 3 8.63468 3 7.75229 3.49047C6.97612 3.9219 6.34508 4.61031 5.9496 5.45704C5.5 6.41965 5.5 7.67976 5.5 10.2V25.8C5.5 28.3202 5.5 29.5804 5.9496 30.543C6.34508 31.3897 6.97612 32.0781 7.75229 32.5095C8.63468 33 9.78972 33 12.0998 33H17.1875M19.25 16.5H11M13.75 22.5H11M22 10.5H11" stroke="black" stroke-width="3" stroke-linecap="round" stroke-linejoin="round"/>
        <path d="M22.5 24.3947H30.5V33C30.5 33.2761 30.2761 33.5 30 33.5H23C22.7239 33.5 22.5 33.2761 22.5 33V24.3947Z" stroke="inherit"/>
        <mask id="path-3-inside-1_40_568" fill="white">
        <path d="M24.5714 23.9286C24.5714 22.8635 25.4349 22 26.5 22C27.5651 22 28.4286 22.8635 28.4286 23.9286V26.1053H24.5714V23.9286Z"/>
        </mask>
        <path d="M23.5714 23.9286C23.5714 22.3112 24.8826 21 26.5 21H26.5C28.1174 21 29.4286 22.3112 29.4286 23.9286L27.4286 23.9286C27.4286 23.4157 27.0128 23 26.5 23C25.9872 23 25.5714 23.4157 25.5714 23.9286L23.5714 23.9286ZM28.4286 26.1053H24.5714H28.4286ZM23.5714 26.1053V23.9286C23.5714 22.3112 24.8826 21 26.5 21L26.5 23C25.9872 23 25.5714 23.4157 25.5714 23.9286V26.1053H23.5714ZM26.5 21C28.1174 21 29.4286 22.3112 29.4286 23.9286V26.1053H27.4286V23.9286C27.4286 23.4157 27.0128 23 26.5 23L26.5 21Z" fill="black" mask="url(#path-3-inside-1_40_568)"/>
        <line x1="24.5714" y1="27.5" x2="28.4286" y2="27.5" stroke="inherit"/>
        <line x1="25.2143" y1="29.4474" x2="27.7857" y2="29.4474" stroke="inherit"/>
    </symbol>



</svg>